/* XPM */
static char *_fe622fefbb749feb9789ae534fd05afOR3xIPZdyL2llIE3[] = {
/* columns rows colors chars-per-pixel */
"64 64 23 1 ",
"  c #A7A7A7",
". c gray67",
"X c #AEAEAE",
"o c gray70",
"O c #B4B4B4",
"+ c #BBBBBB",
"@ c gray75",
"# c gray76",
"$ c gray78",
"% c #CBCBCB",
"& c #CDCDCD",
"* c #D2D2D2",
"= c #D7D7D7",
"- c gray85",
"; c gray87",
": c gray89",
"> c #E6E6E6",
", c #EAEAEA",
"< c #EFEFEF",
"1 c #F1F1F1",
"2 c gray96",
"3 c #FBFBFB",
"4 c white",
/* pixels */
"444,4444444444444:4444444444444>4444444444444$4444444444442<4444",
"::,=>>,,,,>,,,<<,%1<,,,<,<<<<<<*1111123334444-444444444444>-4444",
"4444444444-4444444444444414444443211<,>O>--==*==----&@$%&&%=;:>,",
"4444444444*4444444444444414444444444444=444444444444<34444444444",
"4444444444=4444444444444414444444444443,444444444444<44444444444",
"4444444444:44444444444444144444444444433444444444444144444444444",
";-;&,>:;->=>>>>>>:>,,,,,:;,,,,<,<,>,<1:,<11<<<111111:22122211222",
"444<444444444444414444444444444,4444444444444#4444444444444&,134",
"444,4444444444444>4444444444444>4444444444444*4444444444444>4444",
"444,4444444444444>444444444444414444444444444&4444444444444,4444",
"444<4444444444444<444444444444424444444444444=4444444444444<4444",
",,,:,>>>>:*,:--;;-:<>:;;;:,,,<<-<<111<=,,>>>>$:;;-=*#***=-&$=*==",
"44444444441444444444444442444444444444,4444444444444:44444444444",
"4444444444,444444444444441444444444444;4444444444444,44444444444",
"4444444444,444444444444441444444444444:4444444444444144444444444",
",,1<<<<<<<=11111221112343,334444444444,4444444444444244444444444",
"444>4444443332221>><<<,>>>>::;;$;-----=;;;;::-:>>>>>>,<<<<,-<112",
"4442344444444444433444444444444,44444444444442444444444444:14444",
"4442344444444444433444444444444>44444444444442444444444444%34444",
"4443344444444444443444444444444144444444444442444444444444#44444",
"::,::,>>,,;>>>>>>:->>>>,;><>:::*>>>>>>;>>>>>>-:>,<,;:,111<&<1233",
"44444444443244444444444444444444444444<4444444444442244444444444",
"44444444443344444444444423444444444444>4444444444442244444444444",
"444444444424444444444444>2444444444444>4444444444443344444444444",
"2232222222,:321111222222><22222<111111;22221<<22111,<11111133111",
"44422444444444343<3333333333333<3322223333321>322222222222<33222",
"44433444444444444;444444444444414444444444443<444444444444244444",
"44433444444444444=4444444444444<44444444444433444444444444144444",
"44433444444444444<4444444444444144444444444434444444444444244444",
"4442,344442-&*;13,4444411333333,442<<$211244-222222<<,,144:34444",
"44444444444444444444444;3444444444444@4444444444444:444444444444",
"44444444443444444444444:4444444444444;4444444444444$444444444444",
"4444444444,444444444444<444444444444414444444444444@444444444444",
"444442,;=% :>,<123444443444444444444444444444444444#444444444444",
"43<.244444444444;4444321,<33<;$o$$$$$%*=-;>,<,23444;322111<:,,>>",
"444&444444444444144444444444444:4444444444444<4444444444444<4444",
"444:444444444444434444444444444;4444444444444=444444444444414444",
"444<444444444444424444444444444-4444444444444=444444444444224444",
"4443432<;*2<:-=-;*--====-;:>,>:&<112233223443>444444444444<24444",
"444444444>4444444444444<3444433333333*2222231<<,>:;#-=**&%$$%@##",
"444444444>444444444444412444444444444-44444444444442444444444444",
"444444444>444444444444432444444444444:44444444444443444444444444",
"444444444,444444444444442444444444444244444444444442444444444444",
"3221-24<;=>>,<<1=221<111-1<>>:;;:;;-=+*===---;;::>>*,<1111<23232",
"4444>44444444444&44444444444443244444444444434444444444444,44444",
"4444<44444444444%44444444444443>44444444444414444444444444;44444",
"4444144444444444&44444444444444:444444444444,4444444444444*44444",
"4444344444444444-44444444444444>444444444444<4444444444444-44444",
"31<,,,>>,->>>>>>>,,,,,,,&>,,<21:<<<<1&11<<<<:<,,,>>*>:::;;=;;---",
"444444444144444444444444:444444444444:4444444444444<444444444444",
"444444444244444444444444>444444444444>4444444444444:444444444444",
"444444444344444444444444>444444444444,4444444444444>444444444444",
"1>-&@@$*:;*:;:>:--::::::$:::>,*=<>-==%:>>>>>;>>>>>>=:>,<,-:<11,;",
"4444:444444444444144444444444434444444444444<4444444444443144444",
"4444,444444444444244444444444424444444444444<4444444444442144444",
"444414444444444441444444444444<444444444444414444444444442244444",
"43333321<,,,,,,,<;321<<1122232:2222233333333<433334444444<244444",
"212344433<1232222111111*<<<<<<<<<,,<1$>>::::>,<<,:*#>>:;;;:;;;;;",
"44444444434444444444444<4444444444444:4444444444444-444444444444",
"44444444432444444444444,4444444444444;4444444444444;444444444444",
"4444444443>44444444444424444444444444<44444444444441444444444444",
"4332,>;-*%X*-;::;<:=*=-*;;;;;;-,;==;;@,>-=*&:;*=;,%=;;;;;=-==;,<",
"4444>44444444444<44444444444441444444444444244444444444442444444",
"4444444444444444444444444444444444444444444444444444444444444444"
};
